HIERARCHY
ROOT Hips
{
	OFFSET 0.000000 0.000000 0.000000
	CHANNELS 6 Xposition Yposition Zposition Xrotation Yrotation Zrotation
	JOINT LeftUpLeg_virtual
	{
		OFFSET 0.000000 0.000000 0.000000
		CHANNELS 3 Xrotation Yrotation Zrotation
		JOINT LeftUpLeg
		{
			OFFSET 13.026900 -6.336304 -1.092800
			CHANNELS 3 Xrotation Yrotation Zrotation
			JOINT LeftLeg
			{
				OFFSET 0.524474 -46.096886 9.782700
				CHANNELS 3 Xrotation Yrotation Zrotation
				JOINT LeftFoot
				{
					OFFSET -0.524474 -53.427422 -12.948200
					CHANNELS 3 Xrotation Yrotation Zrotation
					JOINT LeftToeBase
					{
						OFFSET 0.192200 -14.009700 16.364100
						CHANNELS 3 Xrotation Yrotation Zrotation
						JOINT LeftToe_End
						{
							OFFSET -1.784700 -0.561700 9.474800
							CHANNELS 3 Xrotation Yrotation Zrotation
							End Site
							{
								OFFSET 0 0 0
							}
						}
					}
				}
			}
		}
	}
	JOINT RightUpLeg_virtual
	{
		OFFSET 0.000000 0.000000 0.000000
		CHANNELS 3 Xrotation Yrotation Zrotation
		JOINT RightUpLeg
		{
			OFFSET -12.883000 -6.336304 -1.092800
			CHANNELS 3 Xrotation Yrotation Zrotation
			JOINT RightLeg
			{
				OFFSET -0.524587 -46.096825 9.782800
				CHANNELS 3 Xrotation Yrotation Zrotation
				JOINT RightFoot
				{
					OFFSET 0.524587 -53.427383 -12.948300
					CHANNELS 3 Xrotation Yrotation Zrotation
					JOINT RightToeBase
					{
						OFFSET -0.192200 -14.009700 16.364100
						CHANNELS 3 Xrotation Yrotation Zrotation
						JOINT RightToe_End
						{
							OFFSET 1.784700 -0.561700 9.474800
							CHANNELS 3 Xrotation Yrotation Zrotation
							End Site
							{
								OFFSET 0 0 0
							}
						}
					}
				}
			}
		}
	}
	JOINT Spine_virtual
	{
		OFFSET 0.000000 0.000000 0.000000
		CHANNELS 3 Xrotation Yrotation Zrotation
		JOINT Spine
		{
			OFFSET 0.072000 7.257294 -0.789700
			CHANNELS 3 Xrotation Yrotation Zrotation
			JOINT Spine1
			{
				OFFSET 0.000000 12.508769 -0.658067
				CHANNELS 3 Xrotation Yrotation Zrotation
				JOINT Spine1_split
				{
					OFFSET 0.000000 12.508769 -0.658067
					CHANNELS 3 Xrotation Yrotation Zrotation
					JOINT Spine2
					{
						OFFSET 0.000000 12.508769 -0.658067
						CHANNELS 3 Xrotation Yrotation Zrotation
						JOINT Neck_virtual
						{
							OFFSET 0.000000 0.000000 0.000000
							CHANNELS 3 Xrotation Yrotation Zrotation
							JOINT Neck
							{
								OFFSET 0.000000 14.033295 7.520400
								CHANNELS 3 Xrotation Yrotation Zrotation
								JOINT Head
								{
									OFFSET 0.000000 8.198502 5.703100
									CHANNELS 3 Xrotation Yrotation Zrotation
									JOINT HeadTop_End
									{
										OFFSET 0.000000 17.760803 13.332701
										CHANNELS 3 Xrotation Yrotation Zrotation
										End Site
										{
											OFFSET 0 0 0
										}
									}
								}
							}
						}
						JOINT LeftShoulder_virtual
						{
							OFFSET 0.000000 0.000000 0.000000
							CHANNELS 3 Xrotation Yrotation Zrotation
							JOINT LeftShoulder
							{
								OFFSET 6.292450 5.785301 -0.669000
								CHANNELS 3 Xrotation Yrotation Zrotation
								JOINT LeftShoulder_split
								{
									OFFSET 6.292450 5.785301 -0.669000
									CHANNELS 3 Xrotation Yrotation Zrotation
									JOINT LeftArm
									{
										OFFSET 13.907140 -6.093903 1.965100
										CHANNELS 3 Xrotation Yrotation Zrotation
										JOINT LeftForeArm
										{
											OFFSET 34.140198 0.000000 0.000000
											CHANNELS 3 Xrotation Yrotation Zrotation
											JOINT LeftHand
											{
												OFFSET 40.960209 0.000000 0.000000
												CHANNELS 3 Xrotation Yrotation Zrotation
												End Site
												{
													OFFSET 0 0 0
												}
											}
										}
									}
								}
							}
						}
						JOINT RightShoulder_virtual
						{
							OFFSET 0.000000 0.000000 0.000000
							CHANNELS 3 Xrotation Yrotation Zrotation
							JOINT RightShoulder
							{
								OFFSET -6.292450 5.785301 -0.669000
								CHANNELS 3 Xrotation Yrotation Zrotation
								JOINT RightShoulder_split
								{
									OFFSET -6.292450 5.785301 -0.669000
									CHANNELS 3 Xrotation Yrotation Zrotation
									JOINT RightArm
									{
										OFFSET -13.907140 -6.093903 1.965100
										CHANNELS 3 Xrotation Yrotation Zrotation
										JOINT RightForeArm
										{
											OFFSET -34.140198 0.000000 0.000000
											CHANNELS 3 Xrotation Yrotation Zrotation
											JOINT RightHand
											{
												OFFSET -40.960209 0.000000 0.000000
												CHANNELS 3 Xrotation Yrotation Zrotation
												End Site
												{
													OFFSET 0 0 0
												}
											}
										}
									}
								}
							}
						}
					}
				}
			}
		}
	}
}
MOTION
Frames: 4
Frame Time: 0.03333333
-0.805491 99.441956 0.986631 0.000000 0.000000 0.000000 15.341197 -57.187176 14.261430 -53.402865 8.731848 26.498583 45.832895 -7.691899 -2.628901 3.754415 -2.556028 -3.656505 -0.203098 0.074118 0.326975 0.000000 0.000000 0.000000 16.378970 -58.475893 15.777513 -30.445954 -3.830458 -19.130892 52.916535 6.639128 -2.684280 -25.509363 -7.008615 10.005090 3.204989 0.205914 0.668262 0.000000 0.000000 0.000000 16.056383 -58.087159 14.084478 5.971470 1.924703 -2.952525 -3.805494 5.382601 -3.932522 0.373895 -3.657363 1.055163 0.000000 0.000000 0.000000 -1.593278 4.739251 -3.475113 -16.085345 9.453737 4.511162 2.856736 31.976979 0.472046 0.000000 0.000000 0.000000 -3.222809 5.003407 -3.620351 -31.378408 12.088561 5.201096 -7.441543 6.942879 -5.525189 36.366147 -18.630690 -36.291213 -30.965516 -85.019251 -30.764572 0.000000 0.000000 0.000000 -4.178211 4.530050 -3.648810 3.295487 13.110855 11.154358 -7.745917 2.362022 -0.696290 7.758701 4.461292 65.718195 13.260128 68.223679 -15.937464 0.000000 0.000000 0.000000 
-0.776590 99.574486 1.322863 0.000000 0.000000 0.000000 15.067245 -57.245222 14.008803 -53.395393 9.166383 26.732852 45.444602 -7.526457 -2.796212 3.458237 -2.639864 -3.578290 -0.151957 0.028963 0.387890 0.000000 0.000000 0.000000 16.225347 -58.626478 15.532752 -30.022657 -3.863025 -19.001084 52.553388 6.521189 -2.649114 -25.720290 -7.030902 9.811851 2.976211 0.200197 0.692386 0.000000 0.000000 0.000000 16.166744 -58.241173 14.211691 6.036459 1.986053 -3.131137 -3.715568 5.365548 -3.973050 0.891019 -3.432865 1.109105 0.000000 0.000000 0.000000 -1.375156 4.770035 -3.544162 -15.582317 9.923008 4.442058 2.548970 31.934556 0.565655 0.000000 0.000000 0.000000 -2.833256 4.968744 -3.544271 -31.452454 11.632775 5.206339 -6.723230 5.454030 -5.087215 36.640007 -20.346642 -36.458812 -29.469316 -84.499036 -29.080842 0.000000 0.000000 0.000000 -3.941465 4.513258 -3.661982 3.316911 13.160741 11.778864 -8.696345 2.891009 -0.204283 9.053923 4.128819 65.768315 12.208116 67.826149 -14.806013 0.000000 0.000000 0.000000 
-0.693832 99.796562 1.523918 0.000000 0.000000 0.000000 14.648544 -57.346098 13.509283 -52.886295 9.631123 26.911886 44.610336 -7.420283 -2.964247 3.027542 -2.742583 -3.516796 0.044369 -0.052306 0.402165 0.000000 0.000000 0.000000 15.698503 -58.641163 14.860743 -29.272548 -4.188557 -18.795156 52.031473 6.339271 -2.624862 -26.217592 -7.111074 9.546979 2.600551 0.175738 0.727691 0.000000 0.000000 0.000000 15.799973 -58.156629 13.978008 6.227854 2.002129 -3.372286 -3.595996 5.462394 -4.051937 1.127616 -3.332674 1.273485 0.000000 0.000000 0.000000 -1.230682 4.895523 -3.711839 -15.119558 10.580009 4.464053 1.730721 32.160984 0.981107 0.000000 0.000000 0.000000 -2.511971 5.086443 -3.560310 -31.503582 10.716214 5.016353 -5.503194 4.059692 -4.689648 37.046796 -22.530665 -36.194610 -20.954501 -82.356761 -20.557186 0.000000 0.000000 0.000000 -3.491732 4.607498 -3.778955 3.223409 12.906391 12.405726 -8.973595 3.061449 -0.177504 10.511302 5.210852 64.967277 10.895842 67.885660 -13.620032 0.000000 0.000000 0.000000 
-0.556859 100.039818 1.576937 0.000000 0.000000 0.000000 14.082731 -57.312855 12.798057 -52.108579 10.029628 27.040338 43.750278 -7.377182 -3.144377 2.523154 -2.860733 -3.431535 0.343123 -0.160054 0.364640 0.000000 0.000000 0.000000 14.949165 -58.484711 13.976167 -28.456629 -4.634719 -18.611878 51.393096 6.178771 -2.624619 -26.841030 -7.211718 9.359120 2.195351 0.137792 0.754142 0.000000 0.000000 0.000000 15.081131 -57.797170 13.485911 6.498857 1.881466 -3.542266 -3.465586 5.638931 -4.124350 0.857656 -3.278458 1.389140 0.000000 0.000000 0.000000 -1.190422 5.051184 -3.871338 -14.831874 11.435745 4.555589 0.767483 32.705125 1.345183 0.000000 0.000000 0.000000 -2.231125 5.273230 -3.633709 -31.500245 9.573945 4.700613 -4.489170 3.249321 -4.648421 37.331215 -24.530781 -35.851929 -13.964050 -78.813082 -13.628364 0.000000 0.000000 0.000000 -2.887372 4.773287 -3.947683 3.039858 12.431847 12.955726 -8.840683 2.966289 -0.229222 12.125105 7.404843 63.114185 9.479490 68.294734 -12.575438 0.000000 0.000000 0.000000 
